<svg xmlns="http://www.w3.org/2000/svg">
    <defs>
				<svg id="mail-icon" width="100%" height="100%" viewBox="0 0 25 24" fill="none" xmlns="http://www.w3.org/2000/svg" fit="" preserveAspectRatio="xMidYMid meet" focusable="false">
					<rect x="0.5" width="24" height="24" rx="12" fill="#ED1C24"></rect>
					<path fill-rule="evenodd" clip-rule="evenodd" d="M5.66999 8.50015C5.66999 7.34035 6.58726 6.40015 7.71878 6.40015H17.2798C18.4113 6.40015 19.3285 7.34035 19.3285 8.50015V9.18928C19.3286 9.1961 19.3286 9.20291 19.3285 9.20972V15.5001C19.3285 16.6599 18.4113 17.6001 17.2798 17.6001H7.71877C6.58726 17.6001 5.66999 16.6599 5.66999 15.5001V9.20972C5.6699 9.20291 5.6699 9.1961 5.66999 9.18929V8.50015ZM7.03585 10.5081V15.5001C7.03585 15.8867 7.3416 16.2001 7.71877 16.2001H17.2798C17.6569 16.2001 17.9627 15.8867 17.9627 15.5001V10.5081L13.6357 13.4649C12.9475 13.9351 12.051 13.9351 11.3628 13.4649L7.03585 10.5081ZM17.9627 8.82552L12.8781 12.3C12.6487 12.4567 12.3498 12.4567 12.1204 12.3L7.03585 8.82552V8.50015C7.03585 8.11355 7.3416 7.80015 7.71878 7.80015H17.2798C17.6569 7.80015 17.9627 8.11355 17.9627 8.50015V8.82552Z" fill="white"></path>
				</svg>
				
				<svg id="phone-icon" width="100%" height="100%" viewBox="0 0 24 24" fill="none" xmlns="http://www.w3.org/2000/svg" fit="" preserveAspectRatio="xMidYMid meet" focusable="false">
					<rect width="24" height="24" rx="12" fill="#2D8EFF"></rect>
					<path fill-rule="evenodd" clip-rule="evenodd" d="M5.17188 7.1C5.17188 5.9402 6.08915 5 7.22066 5H9.46014C10.048 5 10.57 5.3856 10.7559 5.95728L11.7788 9.10269C11.9937 9.76365 11.7018 10.486 11.0939 10.7976L10.1674 11.2724C10.7729 12.3564 11.6534 13.2589 12.711 13.8795L13.1742 12.93C13.4782 12.3068 14.183 12.0076 14.8278 12.2279L17.8965 13.2764C18.4542 13.4669 18.8304 14.0019 18.8304 14.6045V16.9C18.8304 18.0598 17.9131 19 16.7816 19H16.0987C10.064 19 5.17188 13.9856 5.17188 7.8V7.1ZM7.22066 6.4C6.84349 6.4 6.53773 6.7134 6.53773 7.1V7.8C6.53773 13.2124 10.8183 17.6 16.0987 17.6H16.7816C17.1588 17.6 17.4646 17.2866 17.4646 16.9V14.6045L14.3959 13.5561L13.6251 15.1361C13.4612 15.4722 13.0677 15.6157 12.7336 15.4612C10.9122 14.6195 9.44554 13.1162 8.62433 11.2493C8.47368 10.9068 8.61366 10.5035 8.94149 10.3354L10.483 9.54541L9.46014 6.4H7.22066Z" fill="white"></path>
				</svg>

				<svg id="auto" width="24" height="24" viewBox="0 0 25 24" xmlns="http://www.w3.org/2000/svg">
					<path d="M19.295 5.01C19.095 4.42 18.535 4 17.875 4H6.875C6.215 4 5.665 4.42 5.455 5.01L3.375 11V19C3.375 19.55 3.825 20 4.375 20H5.375C5.925 20 6.375 19.55 6.375 19V18H18.375V19C18.375 19.55 18.825 20 19.375 20H20.375C20.925 20 21.375 19.55 21.375 19V11L19.295 5.01ZM7.225 6H17.515L18.555 9H6.185L7.225 6ZM19.375 16H5.375V11.34L5.495 11H19.265L19.375 11.34V16ZM7.875 15C8.70343 15 9.375 14.3284 9.375 13.5C9.375 12.6716 8.70343 12 7.875 12C7.04657 12 6.375 12.6716 6.375 13.5C6.375 14.3284 7.04657 15 7.875 15ZM16.875 15C17.7034 15 18.375 14.3284 18.375 13.5C18.375 12.6716 17.7034 12 16.875 12C16.0466 12 15.375 12.6716 15.375 13.5C15.375 14.3284 16.0466 15 16.875 15Z"/>
				</svg>

				<svg id="mobile_home" width="24" height="24" viewBox="0 0 25 24" xmlns="http://www.w3.org/2000/svg">
					<path d="M17.625 5H3.625C2.525 5 1.625 5.89 1.625 7V16H3.625C3.625 17.66 4.965 19 6.625 19C8.285 19 9.625 17.66 9.625 16H15.625C15.625 17.66 16.965 19 18.625 19C20.285 19 21.625 17.66 21.625 16H23.625V11L17.625 5ZM15.625 7H16.625L19.625 10H15.625V7ZM9.625 7H13.625V10H9.625V7ZM3.625 7H7.625V10H3.625V7ZM6.625 17.25C5.935 17.25 5.375 16.69 5.375 16C5.375 15.31 5.935 14.75 6.625 14.75C7.315 14.75 7.875 15.31 7.875 16C7.875 16.69 7.315 17.25 6.625 17.25ZM18.625 17.25C17.935 17.25 17.375 16.69 17.375 16C17.375 15.31 17.935 14.75 18.625 14.75C19.315 14.75 19.875 15.31 19.875 16C19.875 16.69 19.315 17.25 18.625 17.25ZM21.625 14H20.845C20.295 13.39 19.505 13 18.625 13C17.745 13 16.955 13.39 16.405 14H8.845C8.295 13.39 7.515 13 6.625 13C5.735 13 4.955 13.39 4.405 14H3.625V12H21.625V14Z"/>
				</svg>

				<svg id="moto" width="24" height="24" viewBox="0 0 25 24" xmlns="http://www.w3.org/2000/svg">
					<path d="M19.625 7C19.625 5.9 18.725 5 17.625 5H14.625V7H17.625V9.65L14.145 14H10.625V9H6.625C4.415 9 2.625 10.79 2.625 13V16H4.625C4.625 17.66 5.965 19 7.625 19C9.285 19 10.625 17.66 10.625 16H15.105L19.625 10.35V7ZM4.625 14V13C4.625 11.9 5.525 11 6.625 11H8.625V14H4.625ZM7.625 17C7.075 17 6.625 16.55 6.625 16H8.625C8.625 16.55 8.175 17 7.625 17ZM10.625 6H5.625V8H10.625V6ZM19.625 13C17.965 13 16.625 14.34 16.625 16C16.625 17.66 17.965 19 19.625 19C21.285 19 22.625 17.66 22.625 16C22.625 14.34 21.285 13 19.625 13ZM19.625 17C19.075 17 18.625 16.55 18.625 16C18.625 15.45 19.075 15 19.625 15C20.175 15 20.625 15.45 20.625 16C20.625 16.55 20.175 17 19.625 17Z"/>
				</svg>

				<svg id="truck" width="24" height="24" viewBox="0 0 25 24" xmlns="http://www.w3.org/2000/svg">
					<path d="M2.375 6C2.375 4.89543 3.27043 4 4.375 4H12.375C13.4796 4 14.375 4.89543 14.375 6H16.9608C17.4912 6 17.9999 6.21071 18.375 6.58579L17.6679 7.29289L18.375 6.58579L21.7892 10C22.1643 10.3751 22.375 10.8838 22.375 11.4142V16C22.375 17.1046 21.4796 18 20.375 18H20.2043C19.7925 19.1652 18.6812 20 17.375 20C16.0688 20 14.9575 19.1652 14.5457 18H14.375C14.0107 18 13.6692 17.9026 13.375 17.7324C13.0808 17.9026 12.7393 18 12.375 18H10.2043C9.79246 19.1652 8.68122 20 7.375 20C6.06878 20 4.95754 19.1652 4.54571 18H4.375C3.27043 18 2.375 17.1046 2.375 16V6ZM4.54571 16C4.95754 14.8348 6.06878 14 7.375 14C8.68122 14 9.79246 14.8348 10.2043 16H12.375L12.375 8C12.375 7.99907 12.375 7.99814 12.375 7.99721L12.375 8M12.375 7.99721L12.375 6L4.375 6V16H4.54571M14.375 16H14.5457C14.9575 14.8348 16.0688 14 17.375 14C18.6812 14 19.7925 14.8348 20.2043 16H20.375L20.375 11.4142L16.9608 8H14.375L14.375 16ZM7.375 16C6.82271 16 6.375 16.4477 6.375 17C6.375 17.5523 6.82271 18 7.375 18C7.92728 18 8.375 17.5523 8.375 17C8.375 16.4477 7.92728 16 7.375 16ZM17.375 16C16.8227 16 16.375 16.4477 16.375 17C16.375 17.5523 16.8227 18 17.375 18C17.9273 18 18.375 17.5523 18.375 17C18.375 16.4477 17.9273 16 17.375 16Z"/>
				</svg>

				<svg id="email-red-bg-white" width="36" height="36" viewBox="0 0 36 36" fill="none" xmlns="http://www.w3.org/2000/svg">
					<rect x="0.4375" width="35.122" height="36" rx="17.561" fill="white"/>
					<rect x="0.4375" width="35.122" height="36" rx="17.561" fill="white"/>
					<path fill-rule="evenodd" clip-rule="evenodd" d="M8.00011 13C8.00011 11.3431 9.34325 10 11.0001 10H25.0001C26.657 10 28.0001 11.3431 28.0001 13V13.9845C28.0002 13.9942 28.0002 14.004 28.0001 14.0137V23C28.0001 24.6569 26.657 26 25.0001 26H11.0001C9.34325 26 8.00011 24.6569 8.00011 23V14.0137C7.99996 14.004 7.99996 13.9942 8.00011 13.9845V13ZM10.0001 15.8685V23C10.0001 23.5523 10.4478 24 11.0001 24H25.0001C25.5524 24 26.0001 23.5523 26.0001 23V15.8685L19.6642 20.0925C18.6565 20.7642 17.3437 20.7642 16.336 20.0925L10.0001 15.8685ZM26.0001 13.4648L18.5548 18.4283C18.2189 18.6523 17.7813 18.6523 17.4454 18.4283L10.0001 13.4648V13C10.0001 12.4477 10.4478 12 11.0001 12H25.0001C25.5524 12 26.0001 12.4477 26.0001 13V13.4648Z" fill="url(#paint0_linear_7441_309134)"/>
					<defs>
					<linearGradient id="paint0_linear_7441_309134" x1="18.2501" y1="10" x2="18.3488" y2="25.9994" gradientUnits="userSpaceOnUse">
					<stop stop-color="#FF7C81"/>
					<stop offset="1" stop-color="#F1363D"/>
					</linearGradient>
					</defs>
				</svg>

				<svg id="location-red-bg-white" width="36" height="36" viewBox="0 0 36 36" fill="none" xmlns="http://www.w3.org/2000/svg">
					<rect x="0.4375" width="35.122" height="36" rx="17.561" fill="white"/>
					<rect x="0.4375" width="35.122" height="36" rx="17.561" fill="white"/>
					<path fill-rule="evenodd" clip-rule="evenodd" d="M22.9497 12.0503C20.2161 9.31658 15.7839 9.31658 13.0503 12.0503C10.3166 14.7839 10.3166 19.2161 13.0503 21.9497L17.2937 26.1932C17.684 26.5835 18.3159 26.5836 18.7067 26.1928L22.9497 21.9497C25.6834 19.2161 25.6834 14.7839 22.9497 12.0503ZM11.636 10.636C15.1508 7.12132 20.8492 7.12132 24.364 10.636C27.8787 14.1508 27.8787 19.8492 24.364 23.364L20.8617 26.8662C20.8303 26.8976 20.8754 26.8525 20.844 26.8839L20.1209 27.607C18.9496 28.7783 17.0514 28.7793 15.8795 27.6074L11.636 23.364C8.12132 19.8492 8.12132 14.1508 11.636 10.636ZM18 15C16.8954 15 16 15.8954 16 17C16 18.1046 16.8954 19 18 19C19.1046 19 20 18.1046 20 17C20 15.8954 19.1046 15 18 15ZM14 17C14 14.7909 15.7909 13 18 13C20.2091 13 22 14.7909 22 17C22 19.2091 20.2091 21 18 21C15.7909 21 14 19.2091 14 17Z" fill="url(#paint0_linear_7441_309138)"/>
					<defs>
					<linearGradient id="paint0_linear_7441_309138" x1="18.225" y1="8" x2="18.4047" y2="28.4843" gradientUnits="userSpaceOnUse">
					<stop stop-color="#FF7C81"/>
					<stop offset="1" stop-color="#F1363D"/>
					</linearGradient>
					</defs>
				</svg>

				<svg id="call-red-bg-white" width="36" height="36" viewBox="0 0 36 36" fill="none" xmlns="http://www.w3.org/2000/svg">
					<rect x="0.4375" width="35.122" height="36" rx="17.561" fill="white"/>
					<path fill-rule="evenodd" clip-rule="evenodd" d="M7.75391 10.65C7.75391 8.9103 9.12981 7.5 10.8271 7.5H14.1863C15.0682 7.5 15.8511 8.0784 16.1299 8.93592L17.6643 13.654C17.9867 14.6455 17.5488 15.729 16.6369 16.1964L15.2473 16.9086C16.1555 18.5346 17.4762 19.8884 19.0626 20.8193L19.7574 19.3949C20.2134 18.4602 21.2705 18.0114 22.2378 18.3419L26.8408 19.9146C27.6774 20.2004 28.2417 21.0029 28.2417 21.9068V25.35C28.2417 27.0897 26.8658 28.5 25.1685 28.5H24.1441C15.0921 28.5 7.75391 20.9784 7.75391 11.7V10.65ZM10.8271 9.6C10.2613 9.6 9.80269 10.0701 9.80269 10.65V11.7C9.80269 19.8186 16.2236 26.4 24.1441 26.4H25.1685C25.7343 26.4 26.1929 25.9299 26.1929 25.35V21.9068L21.5899 20.3341L20.4337 22.7042C20.1879 23.2083 19.5977 23.4235 19.0964 23.1918C16.3643 21.9292 14.1644 19.6743 12.9326 16.8739C12.7066 16.3602 12.9166 15.7552 13.4083 15.5032L15.7206 14.3181L14.1863 9.6H10.8271Z" fill="url(#paint0_linear_7441_309131)"/>
					<defs>
					<linearGradient id="paint0_linear_7441_309131" x1="18.2539" y1="7.5" x2="18.4199" y2="28.4987" gradientUnits="userSpaceOnUse">
					<stop stop-color="#FF7C81"/>
					<stop offset="1" stop-color="#F1363D"/>
					</linearGradient>
					</defs>
				</svg>

				<svg id="whatsapp-red-bg-white" width="36" height="36" viewBox="0 0 36 36" fill="none" xmlns="http://www.w3.org/2000/svg">
					<rect x="0.4375" width="35.122" height="36" rx="17.561" fill="white"/>
					<path fill-rule="evenodd" clip-rule="evenodd" d="M7.55078 17.9991C7.55078 12.0841 12.2289 7.28906 17.9996 7.28906C23.7703 7.28906 28.4483 12.0841 28.4483 17.9991C28.4483 23.914 23.7703 28.7091 17.9996 28.7091C15.9317 28.7091 14.0023 28.0926 12.3791 27.0291L8.10339 28.1247L9.22451 23.8154C8.16569 22.1402 7.55078 20.1422 7.55078 17.9991ZM17.9996 8.93675C13.1167 8.93675 9.15829 12.9941 9.15829 17.9991C9.15829 19.9326 9.74814 21.7224 10.7535 23.193L10.9683 23.5073L10.3593 25.8482L12.6856 25.2521L12.9846 25.4636C14.4094 26.4713 16.136 27.0614 17.9996 27.0614C22.8825 27.0614 26.8408 23.004 26.8408 17.9991C26.8408 12.9941 22.8825 8.93675 17.9996 8.93675Z" fill="url(#paint0_linear_7441_309126)"/>
					<path d="M15.1882 12.6438C14.9206 12.093 14.5102 12.1417 14.0956 12.1417C13.3546 12.1417 12.1992 13.0515 12.1992 14.7446C12.1992 16.1323 12.7958 17.6512 14.8059 19.9235C16.7459 22.1163 19.2949 23.2507 21.411 23.2121C23.5271 23.1735 23.9625 21.307 23.9625 20.6766C23.9625 20.3972 23.7933 20.2578 23.6768 20.22C22.9557 19.8652 21.6257 19.2043 21.3231 19.0801C21.0204 18.9559 20.8624 19.1239 20.7642 19.2152C20.4898 19.4833 19.9458 20.2733 19.7595 20.451C19.5733 20.6287 19.2956 20.5388 19.18 20.4716C18.7548 20.2967 17.6018 19.771 16.6827 18.8578C15.5461 17.7285 15.4794 17.3399 15.2653 16.994C15.0939 16.7173 15.2197 16.5476 15.2824 16.4734C15.5273 16.1837 15.8654 15.7366 16.0171 15.5144C16.1687 15.2921 16.0483 14.9548 15.9761 14.7446C15.6654 13.8409 15.4022 13.0844 15.1882 12.6438Z" fill="url(#paint1_linear_7441_309126)"/>
					<defs>
					<linearGradient id="paint0_linear_7441_309126" x1="18.2608" y1="7.28906" x2="18.43" y2="28.7077" gradientUnits="userSpaceOnUse">
					<stop stop-color="#FF7C81"/>
					<stop offset="1" stop-color="#F1363D"/>
					</linearGradient>
					<linearGradient id="paint1_linear_7441_309126" x1="18.2279" y1="12.1406" x2="18.3082" y2="23.2125" gradientUnits="userSpaceOnUse">
					<stop stop-color="#FF7C81"/>
					<stop offset="1" stop-color="#F1363D"/>
					</linearGradient>
					</defs>
				</svg>

				<svg id="call" width="14" height="14" viewBox="0 0 14 15" fill="none" xmlns="http://www.w3.org/2000/svg">
					<path fill-rule="evenodd" clip-rule="evenodd" d="M0.170898 2.4999C0.170898 1.3401 1.08817 0.399902 2.21968 0.399902H4.45916C5.04706 0.399902 5.56901 0.785504 5.75492 1.35718L6.77782 4.50259C6.99277 5.16355 6.70084 5.88593 6.09289 6.19751L5.16646 6.6723C5.77196 7.75634 6.65243 8.65882 7.71002 9.27945L8.17323 8.32987C8.47721 7.70671 9.18198 7.40749 9.82681 7.62781L12.8955 8.67628C13.4532 8.86684 13.8294 9.40183 13.8294 10.0044V12.2999C13.8294 13.4597 12.9122 14.3999 11.7807 14.3999H11.0977C5.06301 14.3999 0.170898 9.38549 0.170898 3.1999V2.4999ZM2.21968 1.7999C1.84251 1.7999 1.53675 2.1133 1.53675 2.4999V3.1999C1.53675 8.61229 5.81735 12.9999 11.0977 12.9999H11.7807C12.1578 12.9999 12.4636 12.6865 12.4636 12.2999V10.0044L9.39489 8.95596L8.62412 10.536C8.4602 10.8721 8.06673 11.0156 7.73259 10.8611C5.91119 10.0194 4.44456 8.5161 3.62335 6.64917C3.4727 6.30668 3.61268 5.90336 3.94051 5.73535L5.48206 4.94531L4.45916 1.7999H2.21968Z" fill="white"/>
				</svg>

				<svg id="sms" width="14" height="14" viewBox="0 0 15 15" fill="none" xmlns="http://www.w3.org/2000/svg">
					<path d="M12.6562 0.9375H2.34375C1.97079 0.9375 1.6131 1.08566 1.34938 1.34938C1.08566 1.6131 0.9375 1.97079 0.9375 2.34375V9.84375C0.9375 10.2167 1.08566 10.5744 1.34938 10.8381C1.6131 11.1018 1.97079 11.25 2.34375 11.25H3.19641L2.82141 13.5164C2.80556 13.6113 2.81932 13.7088 2.86082 13.7957C2.90232 13.8825 2.96954 13.9545 3.05335 14.0018C3.13716 14.0491 3.2335 14.0695 3.32929 14.0601C3.42508 14.0508 3.51567 14.0122 3.58875 13.9495L6.73594 11.25H12.6562C13.0292 11.25 13.3869 11.1018 13.6506 10.8381C13.9143 10.5744 14.0625 10.2167 14.0625 9.84375V2.34375C14.0625 1.97079 13.9143 1.6131 13.6506 1.34938C13.3869 1.08566 13.0292 0.9375 12.6562 0.9375ZM13.125 9.84375C13.125 9.96807 13.0756 10.0873 12.9877 10.1752C12.8998 10.2631 12.7806 10.3125 12.6562 10.3125H6.5625C6.45056 10.3125 6.34231 10.3526 6.25734 10.4255L3.95578 12.3984L4.21219 10.8586C4.22342 10.7914 4.21989 10.7226 4.20184 10.657C4.18379 10.5913 4.15165 10.5304 4.10767 10.4784C4.06368 10.4264 4.00889 10.3847 3.94713 10.356C3.88536 10.3274 3.81809 10.3125 3.75 10.3125H2.34375C2.21943 10.3125 2.1002 10.2631 2.01229 10.1752C1.92439 10.0873 1.875 9.96807 1.875 9.84375V2.34375C1.875 2.21943 1.92439 2.1002 2.01229 2.01229C2.1002 1.92439 2.21943 1.875 2.34375 1.875H12.6562C12.7806 1.875 12.8998 1.92439 12.9877 2.01229C13.0756 2.1002 13.125 2.21943 13.125 2.34375V9.84375Z" fill="white"/>
				</svg>

				<svg id="whatsapp" width="14" height="14" viewBox="0 0 14 16" fill="none" xmlns="http://www.w3.org/2000/svg">
					<path fill-rule="evenodd" clip-rule="evenodd" d="M0.0341797 7.99986C0.0341797 4.05655 3.1529 0.859863 7.00003 0.859863C10.8472 0.859863 13.9659 4.05655 13.9659 7.99986C13.9659 11.9432 10.8472 15.1399 7.00003 15.1399C5.62148 15.1399 4.33516 14.7289 3.25303 14.0199L0.402583 14.7503L1.15 11.8774C0.444122 10.7606 0.0341797 9.4286 0.0341797 7.99986ZM7.00003 1.95832C3.74477 1.95832 1.10585 4.66321 1.10585 7.99986C1.10585 9.28888 1.49909 10.4821 2.16933 11.4625L2.31256 11.672L1.90654 13.2326L3.45742 12.8352L3.65675 12.9762C4.60657 13.648 5.75768 14.0414 7.00003 14.0414C10.2553 14.0414 12.8942 11.3365 12.8942 7.99986C12.8942 4.66321 10.2553 1.95832 7.00003 1.95832Z" fill="white"/>
					<path d="M5.12448 4.42967C4.94612 4.06247 4.67251 4.09497 4.3961 4.09497C3.9021 4.09497 3.13184 4.70148 3.13184 5.83024C3.13184 6.75533 3.52953 7.76797 4.86964 9.2828C6.16294 10.7447 7.86226 11.501 9.27301 11.4752C10.6838 11.4495 10.974 10.2051 10.974 9.78491C10.974 9.59865 10.8613 9.50572 10.7836 9.48047C10.3028 9.24398 9.41615 8.80333 9.21441 8.72054C9.01266 8.63775 8.90732 8.74973 8.84183 8.81065C8.65888 8.98936 8.29621 9.51604 8.17204 9.6345C8.04786 9.75296 7.86274 9.69301 7.7857 9.64822C7.5022 9.53162 6.73354 9.18117 6.12084 8.57237C5.36309 7.81946 5.31862 7.56042 5.17586 7.32984C5.06165 7.14537 5.14546 7.03219 5.18728 6.98273C5.35054 6.78964 5.57597 6.49154 5.67706 6.34339C5.77816 6.19525 5.6979 5.97033 5.64975 5.83025C5.44264 5.22777 5.26717 4.72343 5.12448 4.42967Z" fill="white"/>
				</svg>

				<svg id="car-body" width="24" height="24" viewBox="0 0 24 24" fill="none" xmlns="http://www.w3.org/2000/svg">
					<path d="M21.9852 15.3775L21.6954 12.6517C21.687 12.5718 21.6617 12.5013 21.6239 12.4355L20.158 10.1185C19.7128 9.41825 18.9903 9 18.2216 9H9.97623C9.88383 9 9.79141 9.03758 9.71579 9.10338L6.41429 12.0689L1.82327 13.2063C1.34863 13.3237 1 13.8078 1 14.3577V16.8203C1 17.4689 1.47044 18 2.05009 18H3.01619C3.24721 18 3.43623 17.7885 3.43623 17.53C3.43623 16.7828 3.97809 16.1765 4.64593 16.1765C5.3096 16.1765 5.85145 16.7828 5.85145 17.53C5.85145 17.7885 6.04045 18 6.2715 18H15.9156C16.1466 18 16.3356 17.7885 16.3356 17.53C16.3356 16.7828 16.8775 16.1765 17.5412 16.1765C18.209 16.1765 18.7509 16.7828 18.7509 17.53C18.7509 17.7885 18.9399 18 19.1709 18H19.906C20.5024 18 21.0737 17.7133 21.4727 17.2104C21.8675 16.7123 22.0566 16.0449 21.9852 15.3775ZM13.7188 12.036H7.79623L10.1275 9.93995H13.7188V12.036ZM14.5589 12.036V9.93995H17.8142C18.3518 10.5838 18.5409 11.4908 18.5997 12.036H14.5589Z" fill="#ED1C24"/>
				</svg>

				<svg id="calendar" width="24" height="24" viewBox="-3 -2 24 24" fill="none" xmlns="http://www.w3.org/2000/svg">
					<path d="M15.8906 1.40625H15.0469V0H13.6406V1.40625H4.35938V0H2.95312V1.40625H2.10938C0.946266 1.40625 0 2.35252 0 3.51562V15.8906C0 17.0537 0.946266 18 2.10938 18H15.8906C17.0537 18 18 17.0537 18 15.8906V3.51562C18 2.35252 17.0537 1.40625 15.8906 1.40625ZM16.5938 15.8906C16.5938 16.2783 16.2783 16.5938 15.8906 16.5938H2.10938C1.72167 16.5938 1.40625 16.2783 1.40625 15.8906V6.60938H16.5938V15.8906ZM16.5938 5.20312H1.40625V3.51562C1.40625 3.12792 1.72167 2.8125 2.10938 2.8125H2.95312V4.21875H4.35938V2.8125H13.6406V4.21875H15.0469V2.8125H15.8906C16.2783 2.8125 16.5938 3.12792 16.5938 3.51562V5.20312Z" fill="#ED1C24"/>
					<path d="M4.07812 8.08594H2.67188V9.49219H4.07812V8.08594Z" fill="#ED1C24"/>
					<path d="M6.89062 8.08594H5.48438V9.49219H6.89062V8.08594Z" fill="#ED1C24"/>
					<path d="M9.70312 8.08594H8.29688V9.49219H9.70312V8.08594Z" fill="#ED1C24"/>
					<path d="M12.5156 8.08594H11.1094V9.49219H12.5156V8.08594Z" fill="#ED1C24"/>
					<path d="M15.3281 8.08594H13.9219V9.49219H15.3281V8.08594Z" fill="#ED1C24"/>
					<path d="M4.07812 10.8984H2.67188V12.3047H4.07812V10.8984Z" fill="#ED1C24"/>
					<path d="M6.89062 10.8984H5.48438V12.3047H6.89062V10.8984Z" fill="#ED1C24"/>
					<path d="M9.70312 10.8984H8.29688V12.3047H9.70312V10.8984Z" fill="#ED1C24"/>
					<path d="M12.5156 10.8984H11.1094V12.3047H12.5156V10.8984Z" fill="#ED1C24"/>
					<path d="M4.07812 13.7109H2.67188V15.1172H4.07812V13.7109Z" fill="#ED1C24"/>
					<path d="M6.89062 13.7109H5.48438V15.1172H6.89062V13.7109Z" fill="#ED1C24"/>
					<path d="M9.70312 13.7109H8.29688V15.1172H9.70312V13.7109Z" fill="#ED1C24"/>
					<path d="M12.5156 13.7109H11.1094V15.1172H12.5156V13.7109Z" fill="#ED1C24"/>
					<path d="M15.3281 10.8984H13.9219V12.3047H15.3281V10.8984Z" fill="#ED1C24"/>
				</svg>

				<svg id="fuel" width="24" height="24" viewBox="0 0 20 18" fill="none" xmlns="http://www.w3.org/2000/svg">
					<path d="M2.5 16.5H12.5" stroke="#ED1C24" stroke-width="2" stroke-linecap="round" stroke-linejoin="round"/>
					<path d="M3.33203 6.75H11.6654" stroke="#ED1C24" stroke-width="2" stroke-linecap="round" stroke-linejoin="round"/>
					<path d="M11.6654 16.5V3C11.6654 2.60218 11.4898 2.22064 11.1772 1.93934C10.8646 1.65804 10.4407 1.5 9.9987 1.5H4.9987C4.55667 1.5 4.13275 1.65804 3.82019 1.93934C3.50763 2.22064 3.33203 2.60218 3.33203 3V16.5" stroke="#ED1C24" stroke-width="2" stroke-linecap="round" stroke-linejoin="round"/>
					<path d="M11.668 9.75H13.3346C13.7767 9.75 14.2006 9.90804 14.5131 10.1893C14.8257 10.4706 15.0013 10.8522 15.0013 11.25V12.75C15.0013 13.1478 15.1769 13.5294 15.4895 13.8107C15.802 14.092 16.2259 14.25 16.668 14.25C17.11 14.25 17.5339 14.092 17.8465 13.8107C18.159 13.5294 18.3346 13.1478 18.3346 12.75V7.3725C18.3348 7.17457 18.2915 6.97856 18.2071 6.79577C18.1227 6.61299 17.9989 6.44704 17.843 6.3075L15.0013 3.75" stroke="#ED1C24" stroke-width="2" stroke-linecap="round" stroke-linejoin="round"/>
				</svg>

				<svg id="mileage" width="24" height="24" viewBox="0 0 24 24" fill="none" xmlns="http://www.w3.org/2000/svg">
					<path d="M10.9332 17.9673C9.59445 16.7479 9.70406 14.8527 11.1726 13.8957C12.8837 12.7806 14.6139 11.6945 16.3408 10.6037C16.8638 10.2733 17.3479 10.4421 17.4562 10.9628C17.4923 11.1362 17.4418 11.2882 17.3734 11.4354C16.4848 13.3491 15.6221 15.2756 14.6926 17.1693C14.0035 18.5732 12.3133 18.9117 10.9332 17.9673Z" fill="#ED1C24"/>
					<path d="M8.17556 12.0384C7.47393 13.0401 7.04014 14.1021 7.02371 15.3211C7.01729 15.797 6.75875 16.056 6.27452 16.0646C5.07675 16.0857 3.87808 16.0853 2.68034 16.0631C2.21971 16.0546 1.99836 15.7862 2.00001 15.3168C2.0089 12.7885 2.90391 10.5922 4.50634 8.66237C4.63551 8.5068 4.7556 8.46234 4.91109 8.6182C5.97837 9.68801 7.04703 10.7565 8.11163 11.8289C8.15375 11.8714 8.15945 11.9499 8.17556 12.0384Z" fill="#ED1C24"/>
					<path d="M21.5065 10.093C22.4527 11.6973 22.9696 13.3951 22.9861 15.2346C22.9914 15.8143 22.7638 16.0622 22.1778 16.0696C21.0473 16.0838 19.9162 16.0839 18.7857 16.0692C18.2167 16.0618 17.9673 15.8033 17.9547 15.2315C17.9455 14.8195 17.9042 14.4117 17.7738 14.0259C17.6589 13.6859 17.709 13.394 17.8631 13.0879C18.059 12.6989 18.2321 12.2984 18.4166 11.9037C18.6209 11.4667 18.6791 11.0156 18.5148 10.5566C18.4395 10.3463 18.4838 10.2004 18.6394 10.0492C19.0985 9.60296 19.5551 9.15355 19.9963 8.68984C20.219 8.45578 20.3589 8.49699 20.5443 8.73649C20.8782 9.1679 21.1999 9.60638 21.5065 10.093Z" fill="#ED1C24"/>
					<path d="M8.65526 5.68339C9.60274 5.32217 10.5441 5.07669 11.5285 5.00322C11.8256 4.98105 11.9422 5.06974 11.9398 5.38145C11.9287 6.79604 11.9316 8.2108 11.9394 9.62544C11.9409 9.89843 11.8258 10.0124 11.564 10.0501C10.7549 10.1667 10.0225 10.4884 9.36104 10.9584C9.13598 11.1183 8.99392 11.1071 8.8049 10.9162C7.80006 9.90121 6.78922 8.89211 5.7721 7.88946C5.56863 7.68889 5.56501 7.56614 5.79645 7.37464C6.65336 6.66562 7.59788 6.11187 8.65526 5.68339Z" fill="#ED1C24"/>
					<path d="M16.2092 5.64291C17.3379 6.05687 18.3158 6.66321 19.2185 7.40225C19.4211 7.56812 19.4134 7.68608 19.2357 7.85899C18.7574 8.3243 18.286 8.79707 17.8215 9.27613C17.6776 9.42446 17.5382 9.44735 17.3474 9.38518C16.7637 9.19495 16.2199 9.29333 15.7202 9.64677C15.6757 9.67821 15.6307 9.70889 15.5851 9.73858C14.5397 10.4188 14.4727 10.4252 13.3041 10.023C13.1195 9.95944 13.0509 9.83988 13.051 9.65483C13.0519 8.21107 13.0536 6.7673 13.0469 5.32357C13.0455 5.02667 13.2179 4.99207 13.4464 5.00896C14.3888 5.07861 15.2976 5.29528 16.2092 5.64291Z" fill="#ED1C24"/>
				</svg>

				<svg id="transmission" width="24" height="24" viewBox="0 0 24 24" fill="none" xmlns="http://www.w3.org/2000/svg">
					<path d="M14.2178 18.9658C15.6376 18.9039 16.4977 17.804 16.2084 16.4449C15.9478 15.2206 15.6667 14.0006 15.3979 12.778C15.3145 12.3986 15.1309 12.0588 14.9152 11.6535C15.8306 11.6712 16.6879 11.4925 17.4889 11.8949C18.4222 12.3639 18.9312 13.147 18.9527 14.1813C18.9865 15.8109 19.0543 17.4447 18.9196 19.071C18.8123 20.3667 17.6954 21.3292 16.3861 21.3317C13.8762 21.3364 11.3653 21.2884 8.85705 21.3519C7.5111 21.386 6.07382 20.4696 6.03973 18.7548C6.00758 17.1379 5.95466 15.5175 6.07505 13.902C6.16538 12.6899 7.2911 11.6629 8.50069 11.6447C8.99994 11.6372 9.49939 11.6434 10.0952 11.6434C9.8372 12.1094 9.65507 12.5235 9.56103 12.9752C9.31879 14.1388 9.03978 15.2947 8.78993 16.4567C8.49591 17.8242 9.39638 18.9503 10.7937 18.9631C11.923 18.9735 13.0525 18.9659 14.2178 18.9658Z" fill="#ED1C24"/>
					<path d="M9.23741 3.76553C9.23794 3.45333 9.22609 3.17845 9.31224 2.90928C9.47929 2.38732 9.9405 2.01158 10.4837 2.0079C11.8251 1.9988 13.1667 1.99566 14.5081 2.00887C15.1851 2.01553 15.7241 2.55943 15.7486 3.27445C15.7753 4.05081 15.7725 4.82931 15.7495 5.6059C15.7292 6.28963 15.2312 6.80137 14.5387 6.86755C14.2348 6.89661 14.0925 7.04448 14.0326 7.32311C13.8933 7.97115 13.7391 8.61611 13.6086 9.26586C13.5599 9.50843 13.4476 9.59803 13.2014 9.58994C12.738 9.57471 12.2732 9.57162 11.8101 9.59071C11.5402 9.60185 11.4341 9.48955 11.3832 9.2394C11.2536 8.60208 11.1032 7.96901 10.9626 7.33391C10.9021 7.06089 10.7621 6.90058 10.4587 6.86883C9.7338 6.79294 9.26068 6.27033 9.24211 5.53249C9.22761 4.95614 9.23807 4.37916 9.23741 3.76553Z" fill="#ED1C24"/>
					<path d="M10.531 17.8266C9.96435 17.5912 9.77731 17.2551 9.89849 16.6915C10.0955 15.7752 10.3033 14.8611 10.5079 13.9463C10.5233 13.8773 10.5085 13.7911 10.6478 13.736C11.0997 14.35 11.6879 14.7569 12.5118 14.7511C13.3216 14.7454 13.8988 14.3401 14.4163 13.6426C14.5754 14.3217 14.7144 14.8977 14.8445 15.4756C14.9379 15.89 15.0197 16.307 15.1063 16.7228C15.2321 17.327 14.8984 17.8334 14.2807 17.8481C13.0416 17.8776 11.8009 17.8969 10.531 17.8266Z" fill="#ED1C24"/>
					<path d="M11.9338 13.4551C11.6312 13.2248 11.5023 12.9349 11.4981 12.591C11.4921 12.0892 11.5061 11.5871 11.4925 11.0857C11.4854 10.8227 11.588 10.729 11.8455 10.7365C12.2842 10.7492 12.7239 10.7505 13.1625 10.7356C13.4303 10.7265 13.5127 10.8392 13.5061 11.0923C13.4937 11.5687 13.5058 12.0456 13.5018 12.5223C13.4942 13.4315 12.7809 13.8688 11.9338 13.4551Z" fill="#ED1C24"/>
					<path d="M7.87598 3.55531C8.1363 3.44296 8.38305 3.41872 8.64966 3.40869C8.79276 3.61196 8.72658 3.84376 8.73364 4.06056C8.74425 4.38622 8.73931 4.71251 8.73606 5.03848C8.73163 5.48267 8.69817 5.5085 8.25226 5.43625C7.79609 5.36235 7.44814 5.06976 7.35901 4.68514C7.25322 4.2286 7.41765 3.85492 7.87598 3.55531Z" fill="#ED1C24"/>
				</svg>

				<svg id="photo" width="14" height="14" viewBox="0 0 14 14" fill="none" xmlns="http://www.w3.org/2000/svg">
					<path d="M2.33203 9.33331L5.00707 6.65827C5.46268 6.20266 6.20138 6.20266 6.65699 6.65827L9.33203 9.33331M8.16536 8.16665L9.09041 7.2416C9.54602 6.78599 10.2847 6.78599 10.7403 7.2416L11.6654 8.16665M8.16536 4.66665H8.1712M3.4987 11.6666H10.4987C11.143 11.6666 11.6654 11.1443 11.6654 10.5V3.49998C11.6654 2.85565 11.143 2.33331 10.4987 2.33331H3.4987C2.85437 2.33331 2.33203 2.85565 2.33203 3.49998V10.5C2.33203 11.1443 2.85437 11.6666 3.4987 11.6666Z" stroke="#111827" stroke-linecap="round" stroke-linejoin="round"/>
				</svg>

				<svg id="camera" width="14" height="14" viewBox="0 0 14 14" fill="none" xmlns="http://www.w3.org/2000/svg">
					<path fill-rule="evenodd" clip-rule="evenodd" d="M1.16797 4.66669C1.16797 3.70019 1.95147 2.91669 2.91797 2.91669H7.58464C8.55113 2.91669 9.33464 3.70019 9.33464 4.66669V4.8895L11.1462 3.98371C11.9219 3.59585 12.8346 4.15993 12.8346 5.02721V8.97283C12.8346 9.84011 11.9219 10.4042 11.1462 10.0163L9.33464 9.11054V9.33335C9.33464 10.2999 8.55113 11.0834 7.58464 11.0834H2.91797C1.95147 11.0834 1.16797 10.2999 1.16797 9.33335V4.66669ZM8.16797 8.15405C8.1678 8.16218 8.1678 8.17031 8.16797 8.17842V9.33335C8.16797 9.65552 7.9068 9.91669 7.58464 9.91669H2.91797C2.5958 9.91669 2.33464 9.65552 2.33464 9.33335V4.66669C2.33464 4.34452 2.5958 4.08335 2.91797 4.08335H7.58464C7.9068 4.08335 8.16797 4.34452 8.16797 4.66669V5.82162C8.1678 5.82973 8.1678 5.83786 8.16797 5.84599V8.15405ZM9.33464 7.80617L11.668 8.97283L11.668 5.02721L9.33464 6.19387V7.80617Z" fill="#111827"/>
				</svg>

				<svg id="fb-gray" width="36" height="36" viewBox="0 0 36 36" fill="none" xmlns="http://www.w3.org/2000/svg">
					<rect width="36" height="36" rx="10" fill="#CECECE"/>
					<path fill-rule="evenodd" clip-rule="evenodd" d="M21.4144 13.0703C20.978 12.983 20.3887 12.9178 20.0181 12.9178C19.0145 12.9178 18.9494 13.3541 18.9494 14.0523V15.2951H21.458L21.2393 17.8694H18.9494V25.6998H15.8083V17.8694H14.1938V15.2951H15.8083V13.7027C15.8083 11.5215 16.8334 10.2998 19.4072 10.2998C20.3015 10.2998 20.956 10.4307 21.8066 10.6052L21.4144 13.0703Z" fill="#1C1C1C"/>
				</svg>

				<svg id="instagram-gray" width="36" height="36" viewBox="0 0 36 36" fill="none" xmlns="http://www.w3.org/2000/svg">
					<rect width="36" height="36" rx="10" fill="#CECECE"/>
					<path d="M18 11.4414C20.1361 11.4414 20.3891 11.4496 21.2327 11.4881C22.0127 11.5237 22.4363 11.654 22.7182 11.7635C23.0916 11.9087 23.3581 12.082 23.638 12.3619C23.918 12.6419 24.0913 12.9084 24.2365 13.2818C24.346 13.5637 24.4763 13.9873 24.5119 14.7673C24.5504 15.6109 24.5586 15.8639 24.5586 18C24.5586 20.1361 24.5504 20.3891 24.5119 21.2326C24.4763 22.0126 24.346 22.4362 24.2365 22.7181C24.0913 23.0915 23.918 23.358 23.638 23.638C23.3581 23.9179 23.0916 24.0913 22.7182 24.2364C22.4363 24.346 22.0127 24.4763 21.2327 24.5119C20.3892 24.5504 20.1362 24.5585 18 24.5585C15.8638 24.5585 15.6108 24.5504 14.7673 24.5119C13.9873 24.4763 13.5637 24.346 13.2818 24.2364C12.9084 24.0913 12.6419 23.9179 12.362 23.638C12.0821 23.358 11.9087 23.0915 11.7635 22.7181C11.654 22.4362 11.5237 22.0126 11.4881 21.2326C11.4496 20.3891 11.4414 20.1361 11.4414 18C11.4414 15.8639 11.4496 15.6109 11.4881 14.7673C11.5237 13.9873 11.654 13.5637 11.7635 13.2818C11.9087 12.9084 12.082 12.6419 12.362 12.362C12.6419 12.082 12.9084 11.9087 13.2818 11.7635C13.5637 11.654 13.9873 11.5237 14.7673 11.4881C15.6109 11.4496 15.8639 11.4414 18 11.4414ZM18 10C15.8273 10 15.5549 10.0092 14.7016 10.0481C13.8501 10.087 13.2686 10.2222 12.7597 10.42C12.2336 10.6244 11.7875 10.898 11.3427 11.3427C10.898 11.7875 10.6244 12.2336 10.42 12.7597C10.2222 13.2685 10.087 13.8501 10.0481 14.7016C10.0092 15.5549 10 15.8273 10 18C10 20.1726 10.0092 20.4451 10.0481 21.2984C10.087 22.1499 10.2222 22.7314 10.42 23.2403C10.6244 23.7663 10.898 24.2125 11.3427 24.6572C11.7875 25.102 12.2336 25.3755 12.7597 25.5799C13.2686 25.7777 13.8501 25.913 14.7016 25.9518C15.5549 25.9907 15.8273 25.9999 18 25.9999C20.1727 25.9999 20.4451 25.9907 21.2984 25.9518C22.1499 25.913 22.7314 25.7777 23.2403 25.5799C23.7664 25.3755 24.2125 25.102 24.6573 24.6572C25.102 24.2125 25.3756 23.7663 25.58 23.2403C25.7778 22.7314 25.913 22.1499 25.9519 21.2984C25.9908 20.4451 26 20.1726 26 18C26 15.8273 25.9908 15.5549 25.9519 14.7016C25.913 13.8501 25.7778 13.2685 25.58 12.7597C25.3756 12.2336 25.102 11.7875 24.6573 11.3427C24.2125 10.898 23.7664 10.6244 23.2403 10.42C22.7314 10.2222 22.1499 10.087 21.2984 10.0481C20.4451 10.0092 20.1727 10 18 10Z" fill="#1C1C1C"/>
					<path d="M18.0036 13.8955C15.7348 13.8955 13.8955 15.7347 13.8955 18.0036C13.8955 20.2725 15.7348 22.1117 18.0036 22.1117C20.2725 22.1117 22.1117 20.2725 22.1117 18.0036C22.1117 15.7347 20.2725 13.8955 18.0036 13.8955ZM18.0036 20.6703C16.5308 20.6703 15.3369 19.4764 15.3369 18.0036C15.3369 16.5308 16.5308 15.3369 18.0036 15.3369C19.4764 15.3369 20.6703 16.5308 20.6703 18.0036C20.6703 19.4764 19.4764 20.6703 18.0036 20.6703Z" fill="#1C1C1C"/>
					<path d="M23.2335 13.731C23.2335 14.2612 22.8037 14.691 22.2735 14.691C21.7433 14.691 21.3135 14.2612 21.3135 13.731C21.3135 13.2008 21.7433 12.771 22.2735 12.771C22.8037 12.771 23.2335 13.2008 23.2335 13.731Z" fill="#1C1C1C"/>
				</svg>

				<svg id="linkedin-gray" width="36" height="36" viewBox="0 0 36 36" fill="none" xmlns="http://www.w3.org/2000/svg">
					<rect width="36" height="36" rx="10" fill="#CECECE"/>
					<g clip-path="url(#clip0_8028_149999)">
					<path d="M14.0266 10.9688C13.1147 10.9688 12.375 11.7241 12.375 12.6566C12.375 13.5892 13.1141 14.362 14.0254 14.362C14.9366 14.362 15.677 13.5892 15.677 12.6566C15.677 11.7247 14.9385 10.9688 14.0266 10.9688ZM22.0845 15.4432C20.6976 15.4432 19.9041 16.1849 19.5234 16.9226H19.4832V15.6417H16.75V25.0312H19.5979V20.3833C19.5979 19.1586 19.6883 17.975 21.1702 17.975C22.6308 17.975 22.6521 19.3715 22.6521 20.4607V25.0312H25.4963H25.5V19.8739C25.5 17.3503 24.9695 15.4432 22.0845 15.4432ZM12.6021 15.6417V25.0312H15.4524V15.6417H12.6021Z" fill="#1C1C1C"/>
					</g>
				</svg>

				<svg id="email-gray" width="36" height="36" viewBox="0 0 36 36" fill="none" xmlns="http://www.w3.org/2000/svg">
					<rect width="36" height="36" rx="10" fill="#CECECE"/>
					<path fill-rule="evenodd" clip-rule="evenodd" d="M8.00011 13C8.00011 11.3431 9.34325 10 11.0001 10H25.0001C26.657 10 28.0001 11.3431 28.0001 13V13.9845C28.0002 13.9942 28.0002 14.004 28.0001 14.0137V23C28.0001 24.6569 26.657 26 25.0001 26H11.0001C9.34325 26 8.00011 24.6569 8.00011 23V14.0137C7.99996 14.004 7.99996 13.9942 8.00011 13.9845V13ZM10.0001 15.8685V23C10.0001 23.5523 10.4478 24 11.0001 24H25.0001C25.5524 24 26.0001 23.5523 26.0001 23V15.8685L19.6642 20.0925C18.6565 20.7642 17.3437 20.7642 16.336 20.0925L10.0001 15.8685ZM26.0001 13.4648L18.5548 18.4283C18.2189 18.6523 17.7813 18.6523 17.4454 18.4283L10.0001 13.4648V13C10.0001 12.4477 10.4478 12 11.0001 12H25.0001C25.5524 12 26.0001 12.4477 26.0001 13V13.4648Z" fill="#1C1C1C"/>
				</svg>

				<svg id="acciones_aprobado.png"  width="27" height="27" viewBox="0 0 27 27" xmlns="http://www.w3.org/2000/svg">
					<path d="M13.2639 5.03408C8.45807 5.03408 4.56216 8.92999 4.56216 13.7358C4.56216 18.5417 8.45807 22.4376 13.2639 22.4376C18.0698 22.4376 21.9657 18.5417 21.9657 13.7358C21.9657 8.92999 18.0698 5.03408 13.2639 5.03408ZM2.38672 13.7358C2.38672 7.72853 7.2566 2.85864 13.2639 2.85864C19.2712 2.85864 24.1411 7.72853 24.1411 13.7358C24.1411 19.7431 19.2712 24.613 13.2639 24.613C7.2566 24.613 2.38672 19.7431 2.38672 13.7358ZM17.2962 10.7913C17.721 11.216 17.721 11.9047 17.2962 12.3295L12.9453 16.6804C12.5205 17.1052 11.8318 17.1052 11.4071 16.6804L9.23162 14.505C8.80684 14.0802 8.80684 13.3915 9.23162 12.9667C9.6564 12.5419 10.3451 12.5419 10.7699 12.9667L12.1762 14.373L15.7579 10.7913C16.1827 10.3665 16.8714 10.3665 17.2962 10.7913Z"/>
				</svg>

				<svg id="anuncios_aprobado.png" width="24" height="24" viewBox="0 0 25 24" xmlns="http://www.w3.org/2000/svg">
					<path d="M19.295 5.01C19.095 4.42 18.535 4 17.875 4H6.875C6.215 4 5.665 4.42 5.455 5.01L3.375 11V19C3.375 19.55 3.825 20 4.375 20H5.375C5.925 20 6.375 19.55 6.375 19V18H18.375V19C18.375 19.55 18.825 20 19.375 20H20.375C20.925 20 21.375 19.55 21.375 19V11L19.295 5.01ZM7.225 6H17.515L18.555 9H6.185L7.225 6ZM19.375 16H5.375V11.34L5.495 11H19.265L19.375 11.34V16ZM7.875 15C8.70343 15 9.375 14.3284 9.375 13.5C9.375 12.6716 8.70343 12 7.875 12C7.04657 12 6.375 12.6716 6.375 13.5C6.375 14.3284 7.04657 15 7.875 15ZM16.875 15C17.7034 15 18.375 14.3284 18.375 13.5C18.375 12.6716 17.7034 12 16.875 12C16.0466 12 15.375 12.6716 15.375 13.5C15.375 14.3284 16.0466 15 16.875 15Z"/>
				</svg>

				<svg id="espera.png" width="20" height="20" viewBox="0 0 20 20" xmlns="http://www.w3.org/2000/svg">
					<path d="M17.0046 0.0431259C16.9015 0.0761821 16.7426 0.176076 16.6514 0.265093C16.4063 0.504378 16.3601 0.710137 16.3601 1.56405V2.27892L16.007 2.0126C14.8685 1.15403 13.522 0.540846 12.0729 0.221075C10.833 -0.052588 9.16076 -0.0441426 7.83011 0.242487C6.86709 0.449867 5.58345 0.973051 4.71816 1.51074C3.60331 2.20355 2.45712 3.29936 1.7381 4.35972C-0.523489 7.6952 -0.58287 12.0821 1.58837 15.4192C2.1344 16.2584 2.9468 17.1698 3.66918 17.7537C5.41396 19.164 7.56332 19.9601 9.72672 19.9975C10.2024 20.0057 10.2521 19.9988 10.4287 19.8997C10.7144 19.7394 10.8707 19.4896 10.8917 19.1595C10.9119 18.8424 10.8225 18.6256 10.5861 18.418C10.3846 18.2411 10.2413 18.2053 9.62007 18.1766C5.60716 17.9914 2.35572 14.9614 1.85827 10.9436C1.80081 10.4796 1.80081 9.52865 1.85827 9.06466C2.08245 7.25412 2.85517 5.61854 4.09043 4.3401C6.58947 1.75365 10.3788 1.08736 13.6087 2.66643C14.0917 2.90255 14.7318 3.29897 15.0164 3.53817L15.1444 3.64574L14.2788 3.64728C13.5128 3.64864 13.3951 3.65816 13.255 3.7302C12.5651 4.08507 12.5651 5.00399 13.255 5.35887C13.4042 5.4356 13.5295 5.44025 15.4426 5.44025C17.6552 5.44025 17.647 5.44106 17.9119 5.19273C17.9794 5.12948 18.0702 5.00092 18.1136 4.90708C18.1869 4.74876 18.1927 4.59188 18.1935 2.72597L18.1945 0.715469L18.0753 0.487359C17.8704 0.0951629 17.4223 -0.0907199 17.0046 0.0431259ZM9.57741 3.74479C9.47183 3.80117 9.32786 3.92905 9.25747 4.02894L9.12949 4.2106L9.1167 7.18204C9.1074 9.33828 9.11738 10.2002 9.15317 10.324C9.19395 10.4651 9.45131 10.7446 10.6365 11.9349C11.4252 12.7271 12.1461 13.4277 12.2387 13.4918C12.3862 13.594 12.4471 13.6083 12.7342 13.6083C13.0215 13.6083 13.0817 13.5941 13.2284 13.4917C13.4803 13.3159 13.6007 13.1101 13.6217 12.8198C13.6545 12.366 13.6537 12.3649 12.2173 10.9201L10.9017 9.59668L10.8901 6.90697L10.8785 4.2173L10.7619 4.05035C10.5753 3.78326 10.379 3.67471 10.0513 3.65726C9.81702 3.64481 9.73695 3.65956 9.57741 3.74479ZM18.7277 9.18695C18.1243 9.47452 18.0137 10.2413 18.5124 10.6792C18.7147 10.8567 18.8285 10.8999 19.0944 10.8999C19.6252 10.8999 19.9992 10.5276 20 9.99868C20.0004 9.69905 19.847 9.41459 19.5949 9.24782C19.3647 9.0955 18.9767 9.06829 18.7277 9.18695ZM18.0452 12.6706C17.4453 12.9929 17.3336 13.741 17.8215 14.1694C18.0201 14.3437 18.2358 14.4116 18.5166 14.3883C19.3387 14.3202 19.6121 13.2383 18.9285 12.7585C18.7774 12.6524 18.6952 12.6274 18.4592 12.6158C18.2554 12.6059 18.1363 12.6216 18.0452 12.6706ZM16.1707 15.5581C15.9169 15.6275 15.6179 15.9469 15.5528 16.2181C15.4541 16.6296 15.6456 17.0399 16.0244 17.2286C16.4018 17.4166 16.7728 17.3559 17.072 17.0572C17.7231 16.4072 17.0653 15.3132 16.1707 15.5581ZM13.1821 17.5632C12.8806 17.6701 12.6443 17.9556 12.584 18.2859C12.5349 18.5547 12.6598 18.8835 12.887 19.0835C13.4392 19.5695 14.2641 19.2688 14.3808 18.5391C14.4841 17.8927 13.8071 17.3416 13.1821 17.5632Z"/>
				</svg>

				<svg id="informacion_faltante.png" width="27" height="27" viewBox="0 0 27 27" xmlns="http://www.w3.org/2000/svg">
					<path d="M13.053 5.19375C8.24713 5.19375 4.35122 9.08966 4.35122 13.8955C4.35122 18.7014 8.24713 22.5973 13.053 22.5973C17.8588 22.5973 21.7547 18.7014 21.7547 13.8955C21.7547 9.08966 17.8588 5.19375 13.053 5.19375ZM2.17578 13.8955C2.17578 7.8882 7.04567 3.01831 13.053 3.01831C19.0603 3.01831 23.9302 7.8882 23.9302 13.8955C23.9302 19.9028 19.0603 24.7727 13.053 24.7727C7.04567 24.7727 2.17578 19.9028 2.17578 13.8955ZM13.053 9.54463C11.4522 9.54463 10.3028 10.3128 9.93366 11.096C9.67757 11.6394 9.02945 11.8724 8.48604 11.6163C7.94263 11.3602 7.70971 10.7121 7.9658 10.1687C8.79125 8.41708 10.8651 7.36919 13.053 7.36919C14.4671 7.36919 15.7891 7.79769 16.7822 8.54249C17.7756 9.28754 18.4916 10.3998 18.4916 11.7201C18.4916 13.9709 16.4967 15.536 14.3394 15.9499C14.2604 15.965 14.1975 16.0041 14.1631 16.0405C14.1476 16.0569 14.1422 16.0681 14.1409 16.0711C14.1409 16.0712 14.1408 16.0714 14.1408 16.0715C14.1404 16.672 13.6536 17.1587 13.053 17.1587C12.4523 17.1587 11.9653 16.6717 11.9653 16.0709C11.9653 14.8287 12.9547 14.0004 13.9295 13.8134C15.5317 13.506 16.3162 12.5136 16.3162 11.7201C16.3162 11.2381 16.0582 10.7188 15.4769 10.2828C14.8953 9.8466 14.0419 9.54463 13.053 9.54463ZM11.9653 19.3341C11.9653 18.7334 12.4522 18.2464 13.053 18.2464H13.0639C13.6646 18.2464 14.1516 18.7334 14.1516 19.3341C14.1516 19.9348 13.6646 20.4218 13.0639 20.4218H13.053C12.4522 20.4218 11.9653 19.9348 11.9653 19.3341Z"/>
				</svg>

				<svg id="inivtacion_a_promocionar.png" width="27" height="27" viewBox="0 0 27 27" xmlns="http://www.w3.org/2000/svg">
					<path d="M20.6432 2.24496C21.0675 2.40426 21.3486 2.81002 21.3486 3.26331V6.66354C23.2252 7.14653 24.6118 8.85001 24.6118 10.8773C24.6118 12.9047 23.2252 14.6082 21.3486 15.0911V18.4914C21.3486 18.9447 21.0675 19.3504 20.6432 19.5097C20.2188 19.669 19.7401 19.5484 19.4419 19.2071C18.7751 18.4441 17.5943 17.7119 15.9739 17.1713C15.2873 16.9423 14.5361 16.7526 13.7346 16.6105V20.9281C13.7346 22.586 12.3906 23.93 10.7327 23.93C9.46406 23.93 8.33237 23.1325 7.90568 21.9377L7.90305 21.9303L5.71655 15.6662C4.01566 14.7482 2.85742 12.9491 2.85742 10.8773C2.85742 7.87369 5.29236 5.43874 8.29601 5.43874H10.2888C11.0548 5.43874 11.7987 5.39714 12.512 5.31888C12.5214 5.31771 12.5308 5.31667 12.5403 5.31575C13.7957 5.17615 14.9559 4.92298 15.9739 4.58337C17.5943 4.04279 18.7751 3.3106 19.4419 2.54758C19.7401 2.20625 20.2188 2.08567 20.6432 2.24496ZM11.5592 7.57923C11.1414 7.60236 10.7175 7.61418 10.2888 7.61418H8.29601C6.49382 7.61418 5.03286 9.07515 5.03286 10.8773C5.03286 12.2252 5.85032 13.3847 7.02085 13.8822C7.41116 14.0482 7.84139 14.1405 8.296 14.1405L10.2888 14.1405C10.7175 14.1405 11.1414 14.1523 11.5592 14.1755V7.57923ZM13.7346 14.4048V7.34985C14.7768 7.18546 15.7604 6.94789 16.6623 6.64701C17.5757 6.34231 18.4254 5.96579 19.1732 5.52119L19.1732 16.2335C18.4254 15.7889 17.5757 15.4124 16.6623 15.1077C15.7604 14.8068 14.7768 14.5692 13.7346 14.4048ZM21.3486 12.7617C21.9989 12.3856 22.4364 11.6826 22.4364 10.8773C22.4364 10.0721 21.9989 9.36908 21.3486 8.99294V12.7617ZM11.5592 16.3546C11.1437 16.3291 10.7197 16.3159 10.2888 16.3159L8.29599 16.3159C8.27978 16.3159 8.26359 16.3159 8.24742 16.3157L9.95438 21.206C9.95473 21.207 9.95508 21.208 9.95543 21.209C10.0737 21.5363 10.3845 21.7545 10.7327 21.7545C11.1892 21.7545 11.5592 21.3845 11.5592 20.9281V16.3546Z"/>
				</svg>

				<svg id="rechazo.png" width="27" height="27" viewBox="0 0 27 27" xmlns="http://www.w3.org/2000/svg">
					<path d="M13.7346 5.24551C8.92877 5.24551 5.03286 9.14142 5.03286 13.9473C5.03286 18.7531 8.92877 22.649 13.7346 22.649C18.5405 22.649 22.4364 18.7531 22.4364 13.9473C22.4364 9.14142 18.5405 5.24551 13.7346 5.24551ZM2.85742 13.9473C2.85742 7.93995 7.72731 3.07007 13.7346 3.07007C19.7419 3.07007 24.6118 7.93995 24.6118 13.9473C24.6118 19.9546 19.7419 24.8245 13.7346 24.8245C7.72731 24.8245 2.85742 19.9546 2.85742 13.9473ZM9.38374 11.7718C9.38374 11.1711 9.87073 10.6841 10.4715 10.6841H10.4823C11.0831 10.6841 11.5701 11.1711 11.5701 11.7718C11.5701 12.3726 11.0831 12.8595 10.4823 12.8595H10.4715C9.87073 12.8595 9.38374 12.3726 9.38374 11.7718ZM15.9101 11.7718C15.9101 11.1711 16.397 10.6841 16.9978 10.6841H17.0087C17.6094 10.6841 18.0964 11.1711 18.0964 11.7718C18.0964 12.3726 17.6094 12.8595 17.0087 12.8595H16.9978C16.397 12.8595 15.9101 12.3726 15.9101 11.7718ZM16.0421 19.254C14.7677 17.9796 12.7016 17.9796 11.4273 19.254C11.0025 19.6787 10.3138 19.6787 9.88901 19.254C9.46423 18.8292 9.46423 18.1405 9.88901 17.7157C12.0129 15.5918 15.4564 15.5918 17.5803 17.7157C18.0051 18.1405 18.0051 18.8292 17.5803 19.254C17.1556 19.6787 16.4669 19.6787 16.0421 19.254Z"/>
				</svg>

				<svg id="review.png" width="27" height="27" viewBox="0 0 27 27" xmlns="http://www.w3.org/2000/svg">
					<path d="M10.9858 3.0578C11.6371 1.05365 14.4724 1.05365 15.1237 3.0578L16.7757 8.1417L22.1213 8.1419C24.2287 8.14198 25.1048 10.8385 23.4 12.0773L19.0755 15.2195L20.7271 20.3035C21.3783 22.3077 19.0844 23.9743 17.3795 22.7357L13.0547 19.5938L8.72993 22.7357C7.02503 23.9743 4.7312 22.3077 5.38232 20.3035L7.034 15.2195L2.70944 12.0773C1.00464 10.8385 1.88081 8.14198 3.98812 8.1419L9.33372 8.1417L10.9858 3.0578ZM13.0547 3.73013L11.4027 8.81403C11.1114 9.71029 10.2762 10.3171 9.3338 10.3171L3.9882 10.3173L8.31276 13.4596C9.07516 14.0135 9.39418 14.9954 9.10299 15.8917L7.45131 20.9757L11.7761 17.8338C12.5385 17.2799 13.5709 17.2799 14.3334 17.8338L18.6581 20.9757L17.0065 15.8917C16.7153 14.9954 17.0343 14.0135 17.7967 13.4596L22.1213 10.3173L16.7757 10.3171C15.8333 10.3171 14.998 9.71029 14.7068 8.81403L13.0547 3.73013Z"/>
				</svg>

				<svg id="Soporte.png" width="27" height="27" viewBox="0 0 27 27" xmlns="http://www.w3.org/2000/svg">
					<path d="M3.01562 6.73752C3.01562 4.93533 4.47659 3.47437 6.27878 3.47437H21.5069C23.309 3.47437 24.77 4.93533 24.77 6.73752V15.4393C24.77 17.2415 23.309 18.7024 21.5069 18.7024H18.6942L14.662 22.7347C14.2372 23.1595 13.5485 23.1595 13.1237 22.7347L9.09139 18.7024H6.27878C4.47659 18.7024 3.01562 17.2415 3.01562 15.4393V6.73752ZM6.27878 5.6498C5.67805 5.6498 5.19106 6.13679 5.19106 6.73752V15.4393C5.19106 16.04 5.67805 16.527 6.27878 16.527H9.54194C9.83042 16.527 10.1071 16.6416 10.3111 16.8456L13.8928 20.4273L17.4746 16.8456C17.6785 16.6416 17.9552 16.527 18.2437 16.527H21.5069C22.1076 16.527 22.5946 16.04 22.5946 15.4393V6.73752C22.5946 6.13679 22.1076 5.6498 21.5069 5.6498H6.27878ZM7.3665 8.91296C7.3665 8.31223 7.85349 7.82524 8.45422 7.82524H19.3314C19.9321 7.82524 20.4191 8.31223 20.4191 8.91296C20.4191 9.51369 19.9321 10.0007 19.3314 10.0007H8.45422C7.85349 10.0007 7.3665 9.51369 7.3665 8.91296ZM7.3665 13.2638C7.3665 12.6631 7.85349 12.1761 8.45422 12.1761H12.8051C13.4058 12.1761 13.8928 12.6631 13.8928 13.2638C13.8928 13.8646 13.4058 14.3516 12.8051 14.3516H8.45422C7.85349 14.3516 7.3665 13.8646 7.3665 13.2638Z"/>
				</svg>

				<svg id="website" width="24" height="24" viewBox="0 0 64 64" xmlns="http://www.w3.org/2000/svg" stroke-width="3" stroke="currentColor" aria-hidden="true" fill="none">
					<path d="M39.93,55.72A24.86,24.86,0,1,1,56.86,32.15a37.24,37.24,0,0,1-.73,6"/>
					<path d="M37.86,51.1A47,47,0,0,1,32,56.7"/>
					<path d="M32,7A34.14,34.14,0,0,1,43.57,30a34.07,34.07,0,0,1,.09,4.85"/>
					<path d="M32,7A34.09,34.09,0,0,0,20.31,32.46c0,16.2,7.28,21,11.66,24.24"/>
					<line x1="10.37" y1="19.9" x2="53.75" y2="19.9"/>
					<line x1="11.05" y1="45.48" x2="37.04" y2="45.48"/>
					<line x1="7.14" y1="32.46" x2="56.86" y2="31.85"/>
					<path d="M53.57,57,58,52.56l-8-8,4.55-2.91a.38.38,0,0,0-.12-.7L39.14,37.37a.39.39,0,0,0-.46.46L42,53.41a.39.39,0,0,0,.71.13L45.57,49Z"/>
				</svg>

				<svg id="buy-icon" width="25" height="24" viewBox="0 0 25 24" xmlns="http://www.w3.org/2000/svg">
					<path d="M6.5 22C5.95 22 5.47917 21.8042 5.0875 21.4125C4.69583 21.0208 4.5 20.55 4.5 20V8C4.5 7.45 4.69583 6.97917 5.0875 6.5875C5.47917 6.19583 5.95 6 6.5 6H8.5C8.5 4.9 8.89167 3.95833 9.675 3.175C10.4583 2.39167 11.4 2 12.5 2C13.6 2 14.5417 2.39167 15.325 3.175C16.1083 3.95833 16.5 4.9 16.5 6H18.5C19.05 6 19.5208 6.19583 19.9125 6.5875C20.3042 6.97917 20.5 7.45 20.5 8V20C20.5 20.55 20.3042 21.0208 19.9125 21.4125C19.5208 21.8042 19.05 22 18.5 22H6.5ZM6.5 20H18.5V8H16.5V10C16.5 10.2833 16.4042 10.5208 16.2125 10.7125C16.0208 10.9042 15.7833 11 15.5 11C15.2167 11 14.9792 10.9042 14.7875 10.7125C14.5958 10.5208 14.5 10.2833 14.5 10V8H10.5V10C10.5 10.2833 10.4042 10.5208 10.2125 10.7125C10.0208 10.9042 9.78333 11 9.5 11C9.21667 11 8.97917 10.9042 8.7875 10.7125C8.59583 10.5208 8.5 10.2833 8.5 10V8H6.5V20ZM10.5 6H14.5C14.5 5.45 14.3042 4.97917 13.9125 4.5875C13.5208 4.19583 13.05 4 12.5 4C11.95 4 11.4792 4.19583 11.0875 4.5875C10.6958 4.97917 10.5 5.45 10.5 6Z"/>
				</svg>

				<svg id="sell-icon" width="24" height="24" viewBox="0 0 24 24" xmlns="http://www.w3.org/2000/svg">
					<path d="M21.4 14.25L14.25 21.4C14.05 21.6 13.825 21.75 13.575 21.85C13.325 21.95 13.075 22 12.825 22C12.575 22 12.325 21.95 12.075 21.85C11.825 21.75 11.6 21.6 11.4 21.4L2.575 12.575C2.39167 12.3917 2.25 12.1792 2.15 11.9375C2.05 11.6958 2 11.4417 2 11.175V4C2 3.45 2.19583 2.97917 2.5875 2.5875C2.97917 2.19583 3.45 2 4 2H11.175C11.4417 2 11.7 2.05417 11.95 2.1625C12.2 2.27083 12.4167 2.41667 12.6 2.6L21.4 11.425C21.6 11.625 21.7458 11.85 21.8375 12.1C21.9292 12.35 21.975 12.6 21.975 12.85C21.975 13.1 21.9292 13.3458 21.8375 13.5875C21.7458 13.8292 21.6 14.05 21.4 14.25ZM12.825 20L19.975 12.85L11.15 4H4V11.15L12.825 20ZM6.5 8C6.91667 8 7.27083 7.85417 7.5625 7.5625C7.85417 7.27083 8 6.91667 8 6.5C8 6.08333 7.85417 5.72917 7.5625 5.4375C7.27083 5.14583 6.91667 5 6.5 5C6.08333 5 5.72917 5.14583 5.4375 5.4375C5.14583 5.72917 5 6.08333 5 6.5C5 6.91667 5.14583 7.27083 5.4375 7.5625C5.72917 7.85417 6.08333 8 6.5 8Z"/>
				</svg>

				<svg id="rental-icon" width="24" height="24" viewBox="0 0 24 24" xmlns="http://www.w3.org/2000/svg">
					<path d="M8 7C7.16667 7 6.45833 6.70833 5.875 6.125C5.29167 5.54167 5 4.83333 5 4C5 3.16667 5.29167 2.45833 5.875 1.875C6.45833 1.29167 7.16667 1 8 1C8.63333 1 9.20833 1.1875 9.725 1.5625C10.2417 1.9375 10.6167 2.41667 10.85 3H19V5H18V7H16V5H10.85C10.6167 5.58333 10.2417 6.0625 9.725 6.4375C9.20833 6.8125 8.63333 7 8 7ZM8 5C8.28333 5 8.52083 4.90417 8.7125 4.7125C8.90417 4.52083 9 4.28333 9 4C9 3.71667 8.90417 3.47917 8.7125 3.2875C8.52083 3.09583 8.28333 3 8 3C7.71667 3 7.47917 3.09583 7.2875 3.2875C7.09583 3.47917 7 3.71667 7 4C7 4.28333 7.09583 4.52083 7.2875 4.7125C7.47917 4.90417 7.71667 5 8 5ZM9 17.5C9.28333 17.5 9.52083 17.4042 9.7125 17.2125C9.90417 17.0208 10 16.7833 10 16.5C10 16.2167 9.90417 15.9792 9.7125 15.7875C9.52083 15.5958 9.28333 15.5 9 15.5C8.71667 15.5 8.47917 15.5958 8.2875 15.7875C8.09583 15.9792 8 16.2167 8 16.5C8 16.7833 8.09583 17.0208 8.2875 17.2125C8.47917 17.4042 8.71667 17.5 9 17.5ZM15 17.5C15.2833 17.5 15.5208 17.4042 15.7125 17.2125C15.9042 17.0208 16 16.7833 16 16.5C16 16.2167 15.9042 15.9792 15.7125 15.7875C15.5208 15.5958 15.2833 15.5 15 15.5C14.7167 15.5 14.4792 15.5958 14.2875 15.7875C14.0958 15.9792 14 16.2167 14 16.5C14 16.7833 14.0958 17.0208 14.2875 17.2125C14.4792 17.4042 14.7167 17.5 15 17.5ZM5 14.6L6.65 9.8C6.73333 9.56667 6.87083 9.375 7.0625 9.225C7.25417 9.075 7.46667 9 7.7 9H16.3C16.5333 9 16.7458 9.075 16.9375 9.225C17.1292 9.375 17.2667 9.56667 17.35 9.8L19 14.6V21.2C19 21.4333 18.925 21.625 18.775 21.775C18.625 21.925 18.4333 22 18.2 22H17.8C17.5667 22 17.375 21.925 17.225 21.775C17.075 21.625 17 21.4333 17 21.2V20H7V21.2C7 21.4333 6.925 21.625 6.775 21.775C6.625 21.925 6.43333 22 6.2 22H5.8C5.56667 22 5.375 21.925 5.225 21.775C5.075 21.625 5 21.4333 5 21.2V14.6ZM7.65 13H16.35L15.65 11H8.35L7.65 13ZM7 18H17V15H7V18Z"/>
				</svg>

				<svg id="garage-icon" width="25" height="24" viewBox="0 0 25 24" xmlns="http://www.w3.org/2000/svg">
					<path d="M7.75 21.5V22.25C7.75 22.4625 7.67813 22.6406 7.53438 22.7844C7.39063 22.9281 7.2125 23 7 23H6.25C6.0375 23 5.85938 22.9281 5.71563 22.7844C5.57188 22.6406 5.5 22.4625 5.5 22.25V16.25L7.075 11.75C7.15 11.525 7.28438 11.3438 7.47813 11.2063C7.67188 11.0688 7.8875 11 8.125 11H16.375C16.6125 11 16.8281 11.0688 17.0219 11.2063C17.2156 11.3438 17.35 11.525 17.425 11.75L19 16.25V22.25C19 22.4625 18.9281 22.6406 18.7844 22.7844C18.6406 22.9281 18.4625 23 18.25 23H17.5C17.2875 23 17.1094 22.9281 16.9656 22.7844C16.8219 22.6406 16.75 22.4625 16.75 22.25V21.5H7.75ZM7.6 14.75H16.9L16.1125 12.5H8.3875L7.6 14.75ZM8.875 19.25C9.1875 19.25 9.45313 19.1406 9.67188 18.9219C9.89062 18.7031 10 18.4375 10 18.125C10 17.8125 9.89062 17.5469 9.67188 17.3281C9.45313 17.1094 9.1875 17 8.875 17C8.5625 17 8.29688 17.1094 8.07812 17.3281C7.85938 17.5469 7.75 17.8125 7.75 18.125C7.75 18.4375 7.85938 18.7031 8.07812 18.9219C8.29688 19.1406 8.5625 19.25 8.875 19.25ZM15.625 19.25C15.9375 19.25 16.2031 19.1406 16.4219 18.9219C16.6406 18.7031 16.75 18.4375 16.75 18.125C16.75 17.8125 16.6406 17.5469 16.4219 17.3281C16.2031 17.1094 15.9375 17 15.625 17C15.3125 17 15.0469 17.1094 14.8281 17.3281C14.6094 17.5469 14.5 17.8125 14.5 18.125C14.5 18.4375 14.6094 18.7031 14.8281 18.9219C15.0469 19.1406 15.3125 19.25 15.625 19.25ZM7 20H17.5V16.25H7V20Z"/>
					<path d="M19.7642 12.0714L14.7027 8.48224C14.482 8.61847 14.2543 8.73151 14.0195 8.82134C13.7847 8.91118 13.5309 8.97988 13.2582 9.02746C12.0724 9.23431 10.9921 8.9951 10.0172 8.30984C9.04236 7.62457 8.45151 6.68904 8.24466 5.50325C8.17019 5.07636 8.15864 4.65988 8.20999 4.25381C8.26134 3.84774 8.36375 3.45415 8.51721 3.07304L11.5671 5.21693L12.6244 3.71287L9.57447 1.56898C9.88112 1.29555 10.2168 1.06593 10.5815 0.880124C10.9462 0.694318 11.342 0.564182 11.7689 0.489716C12.9547 0.282866 14.035 0.522073 15.0098 1.20734C15.9847 1.8926 16.5756 2.82813 16.7824 4.01393C16.83 4.28666 16.8513 4.54871 16.8462 4.80007C16.8412 5.05143 16.8119 5.30397 16.7584 5.55768L21.8493 9.10505C22.0164 9.22253 22.1176 9.38206 22.1527 9.58364C22.1879 9.78523 22.1468 9.96958 22.0293 10.1367L20.7958 11.8914C20.6783 12.0585 20.5188 12.1597 20.3172 12.1949C20.1156 12.23 19.9313 12.1889 19.7642 12.0714ZM20.0163 10.4695L20.4127 9.9055L15.065 6.14634C15.237 5.87195 15.3431 5.56936 15.3831 5.23857C15.4232 4.90779 15.4153 4.58231 15.3594 4.26215C15.2353 3.55067 14.899 2.97091 14.3504 2.52287C13.8018 2.07482 13.1803 1.85639 12.4858 1.86758L14.0316 2.95421C14.1987 3.07168 14.2988 3.22528 14.3319 3.41501C14.365 3.60474 14.3228 3.78316 14.2053 3.95028L12.3258 6.62416C12.2083 6.79128 12.0547 6.89139 11.865 6.92448C11.6752 6.95758 11.4968 6.91539 11.3297 6.79791L9.78386 5.71128C10.0085 6.36857 10.4245 6.87946 11.0318 7.24394C11.6391 7.60842 12.2985 7.72861 13.01 7.6045C13.3183 7.55072 13.6183 7.44951 13.9101 7.30086C14.2018 7.15222 14.4546 6.95538 14.6685 6.71036L20.0163 10.4695Z"/>
				</svg>
		</defs>

</svg>